<?xml version="1.0" encoding="UTF-8"?>
<svg version="1.1" xmlns="http://www.w3.org/2000/svg" width="256" height="256">
<path d="M0 0 C0.99371337 -0.00438225 1.98742674 -0.00876451 3.01125264 -0.01327956 C6.36844516 -0.02672188 9.72561139 -0.03285856 13.08282471 -0.03897095 C15.47877116 -0.04686763 17.87471642 -0.05513631 20.2706604 -0.06375122 C27.48129835 -0.08775287 34.69193813 -0.10290707 41.90260208 -0.11581129 C43.9383927 -0.11952152 45.97418264 -0.12349489 48.00997257 -0.12756395 C60.644717 -0.15280069 73.27946246 -0.17485969 85.91422653 -0.1872921 C88.84249628 -0.19022194 91.77076599 -0.19318358 94.69903564 -0.19619751 C95.4268686 -0.19694356 96.15470155 -0.19768961 96.90459004 -0.19845827 C108.69616664 -0.21111298 120.48759249 -0.24433568 132.2790986 -0.28599934 C144.3781982 -0.32840021 156.4772206 -0.35198506 168.57639432 -0.35721266 C175.37247149 -0.36062911 182.16831318 -0.37241111 188.96431732 -0.4053154 C195.35662549 -0.43621376 201.74863531 -0.44174308 208.14101028 -0.42993164 C210.49003503 -0.42971008 212.83907832 -0.43808321 215.18803787 -0.45558548 C218.39001922 -0.47814893 221.59049331 -0.47004081 224.79248047 -0.45410156 C225.72662553 -0.46798365 226.66077058 -0.48186574 227.62322307 -0.49616849 C232.20756439 -0.43976664 234.02855894 -0.35005818 237.70381546 2.62940025 C238.34612484 3.46248522 238.98843422 4.29557018 239.65020752 5.15390015 C239.98020752 5.48390015 240.31020752 5.81390015 240.65020752 6.15390015 C240.75581235 8.21804657 240.78989238 10.2858591 240.79737854 12.35269165 C240.80105523 13.00747018 240.80473192 13.6622487 240.80852002 14.336869 C240.81959756 16.547046 240.82340756 18.75717605 240.82720947 20.96737671 C240.83347112 22.54559988 240.84011765 24.12382157 240.84712219 25.70204163 C240.86456133 30.00176263 240.87509214 34.30147249 240.88332772 38.60122013 C240.88847233 41.2859447 240.89454834 43.97066577 240.90083885 46.65538788 C240.91990013 55.05046723 240.93412855 63.44553774 240.94245082 71.84063458 C240.95222389 81.53998449 240.97854122 91.23910622 241.01895171 100.93837571 C241.04909127 108.42885988 241.06391769 115.91927858 241.06723183 123.40982223 C241.06958507 127.88640813 241.07858055 132.36275054 241.10369301 136.83927155 C241.12694069 141.0516409 241.13122043 145.26360589 241.12093163 149.47602272 C241.12043532 151.02199204 241.12678364 152.56798103 241.14048767 154.11388969 C241.15815834 156.22547051 241.15112622 158.33559265 241.13795471 160.44717407 C241.14034307 161.62853565 241.14273142 162.80989723 241.14519215 164.02705765 C240.54071063 167.84559742 239.37236112 169.44853214 236.65020752 172.15390015 C233.87212593 173.96539273 231.77457417 174.402927 228.48669434 174.39440918 C227.66502274 174.39715851 226.84335114 174.39990784 225.9967804 174.40274048 C225.10413986 174.39554993 224.21149933 174.38835937 223.29180908 174.38095093 C222.34512863 174.38124298 221.39844818 174.38153503 220.42308044 174.38183594 C217.29557107 174.38044317 214.16830025 174.36488431 211.04083252 174.34921265 C208.87178681 174.34548233 206.70273941 174.34263545 204.53369141 174.34063721 C198.82575831 174.33300222 193.11792705 174.3133548 187.41003418 174.29122925 C181.58515806 174.27076798 175.76026547 174.26163488 169.93536377 174.2515564 C158.50692642 174.23010884 147.07859137 174.1949277 135.65020752 174.15390015 C135.65020752 181.41390015 135.65020752 188.67390015 135.65020752 196.15390015 C137.83645752 196.05077515 140.02270752 195.94765015 142.27520752 195.84140015 C150.27894585 195.83330739 150.27894585 195.83330739 153.46270752 198.40390015 C156.5884611 202.33341894 156.78994248 205.34268718 156.77520752 210.27890015 C156.77778564 211.14772827 156.78036377 212.0165564 156.78302002 212.91171265 C156.65020752 215.15390015 156.65020752 215.15390015 155.65020752 217.15390015 C127.27020752 217.15390015 98.89020752 217.15390015 69.65020752 217.15390015 C67.47899819 212.81148149 68.23636808 206.88450145 69.33770752 202.27890015 C71.09822336 199.42854116 72.83880509 197.99506315 75.65020752 196.15390015 C80.37753373 195.63384226 84.87741354 195.97547794 89.65020752 196.15390015 C89.65020752 188.89390015 89.65020752 181.63390015 89.65020752 174.15390015 C86.74321045 174.17484741 83.83621338 174.19579468 80.84112549 174.21737671 C71.23394044 174.28367047 61.62674525 174.32784513 52.01939201 174.36114883 C46.19470999 174.382019 40.37026242 174.41032677 34.54571533 174.45565796 C28.92416201 174.49913524 23.30283413 174.52304155 17.68112564 174.53340912 C15.53691179 174.54079704 13.3927102 174.55522392 11.24859238 174.57682037 C8.24400974 174.60587882 5.2403574 174.60985505 2.23565674 174.60800171 C1.35020676 174.62238281 0.46475677 174.63676392 -0.44752502 174.65158081 C-5.89821615 174.61522622 -9.0516596 173.82789526 -13.34979248 170.15390015 C-15.74077784 166.56742211 -15.60711887 164.97733234 -15.62394714 160.71459961 C-15.62918382 160.05811223 -15.6344205 159.40162486 -15.63981587 158.72524393 C-15.65484073 156.52122558 -15.65552155 154.31743888 -15.65618896 152.1133728 C-15.66380878 150.53485216 -15.67223597 148.95633524 -15.68141174 147.37782288 C-15.70338094 143.08647222 -15.71215886 138.79519283 -15.71723819 134.50379229 C-15.72087884 131.82340554 -15.72711736 129.14303754 -15.73423958 126.46265793 C-15.75874228 117.11363655 -15.77178779 107.76467074 -15.77532959 98.4156189 C-15.77896574 89.69783524 -15.80886458 80.98040346 -15.85073417 72.26272738 C-15.88541083 64.78068508 -15.90087757 57.29875954 -15.90157562 49.8166374 C-15.90236933 45.34674392 -15.91115045 40.87720876 -15.93957329 36.40739822 C-15.96570929 32.20312491 -15.96798456 27.99950813 -15.95191765 23.79519081 C-15.95009958 22.25244404 -15.95682629 20.7096599 -15.97273636 19.16699409 C-15.99314497 17.05960593 -15.98268057 14.95452625 -15.96452332 12.84716797 C-15.96653464 11.66840403 -15.96854597 10.48964008 -15.97061825 9.27515602 C-15.16934356 5.24667742 -13.42908232 3.76971463 -10.34979248 1.15390015 C-8.1782007 -1.01769163 -3.01814551 0.001593 0 0 Z " fill="#020100" transform="translate(15.34979248046875,-0.153900146484375)"/>
<path d="M0 0 C0.99371337 -0.00438225 1.98742674 -0.00876451 3.01125264 -0.01327956 C6.36844516 -0.02672188 9.72561139 -0.03285856 13.08282471 -0.03897095 C15.47877116 -0.04686763 17.87471642 -0.05513631 20.2706604 -0.06375122 C27.48129835 -0.08775287 34.69193813 -0.10290707 41.90260208 -0.11581129 C43.9383927 -0.11952152 45.97418264 -0.12349489 48.00997257 -0.12756395 C60.644717 -0.15280069 73.27946246 -0.17485969 85.91422653 -0.1872921 C88.84249628 -0.19022194 91.77076599 -0.19318358 94.69903564 -0.19619751 C95.4268686 -0.19694356 96.15470155 -0.19768961 96.90459004 -0.19845827 C108.69616664 -0.21111298 120.48759249 -0.24433568 132.2790986 -0.28599934 C144.3781982 -0.32840021 156.4772206 -0.35198506 168.57639432 -0.35721266 C175.37247149 -0.36062911 182.16831318 -0.37241111 188.96431732 -0.4053154 C195.35662549 -0.43621376 201.74863531 -0.44174308 208.14101028 -0.42993164 C210.49003503 -0.42971008 212.83907832 -0.43808321 215.18803787 -0.45558548 C218.39001922 -0.47814893 221.59049331 -0.47004081 224.79248047 -0.45410156 C225.72662553 -0.46798365 226.66077058 -0.48186574 227.62322307 -0.49616849 C232.20756439 -0.43976664 234.02855894 -0.35005818 237.70381546 2.62940025 C238.34612484 3.46248522 238.98843422 4.29557018 239.65020752 5.15390015 C239.98020752 5.48390015 240.31020752 5.81390015 240.65020752 6.15390015 C240.75581235 8.21804657 240.78989238 10.2858591 240.79737854 12.35269165 C240.80105523 13.00747018 240.80473192 13.6622487 240.80852002 14.336869 C240.81959756 16.547046 240.82340756 18.75717605 240.82720947 20.96737671 C240.83347112 22.54559988 240.84011765 24.12382157 240.84712219 25.70204163 C240.86456133 30.00176263 240.87509214 34.30147249 240.88332772 38.60122013 C240.88847233 41.2859447 240.89454834 43.97066577 240.90083885 46.65538788 C240.91990013 55.05046723 240.93412855 63.44553774 240.94245082 71.84063458 C240.95222389 81.53998449 240.97854122 91.23910622 241.01895171 100.93837571 C241.04909127 108.42885988 241.06391769 115.91927858 241.06723183 123.40982223 C241.06958507 127.88640813 241.07858055 132.36275054 241.10369301 136.83927155 C241.12694069 141.0516409 241.13122043 145.26360589 241.12093163 149.47602272 C241.12043532 151.02199204 241.12678364 152.56798103 241.14048767 154.11388969 C241.15815834 156.22547051 241.15112622 158.33559265 241.13795471 160.44717407 C241.14034307 161.62853565 241.14273142 162.80989723 241.14519215 164.02705765 C240.54071063 167.84559742 239.37236112 169.44853214 236.65020752 172.15390015 C233.87212593 173.96539273 231.77457417 174.402927 228.48669434 174.39440918 C227.66502274 174.39715851 226.84335114 174.39990784 225.9967804 174.40274048 C225.10413986 174.39554993 224.21149933 174.38835937 223.29180908 174.38095093 C222.34512863 174.38124298 221.39844818 174.38153503 220.42308044 174.38183594 C217.29557107 174.38044317 214.16830025 174.36488431 211.04083252 174.34921265 C208.87178681 174.34548233 206.70273941 174.34263545 204.53369141 174.34063721 C198.82575831 174.33300222 193.11792705 174.3133548 187.41003418 174.29122925 C181.58515806 174.27076798 175.76026547 174.26163488 169.93536377 174.2515564 C158.50692642 174.23010884 147.07859137 174.1949277 135.65020752 174.15390015 C135.65020752 181.41390015 135.65020752 188.67390015 135.65020752 196.15390015 C137.83645752 196.05077515 140.02270752 195.94765015 142.27520752 195.84140015 C150.27894585 195.83330739 150.27894585 195.83330739 153.46270752 198.40390015 C156.5884611 202.33341894 156.78994248 205.34268718 156.77520752 210.27890015 C156.77778564 211.14772827 156.78036377 212.0165564 156.78302002 212.91171265 C156.65020752 215.15390015 156.65020752 215.15390015 155.65020752 217.15390015 C127.27020752 217.15390015 98.89020752 217.15390015 69.65020752 217.15390015 C67.47899819 212.81148149 68.23636808 206.88450145 69.33770752 202.27890015 C71.09822336 199.42854116 72.83880509 197.99506315 75.65020752 196.15390015 C80.37753373 195.63384226 84.87741354 195.97547794 89.65020752 196.15390015 C89.65020752 188.89390015 89.65020752 181.63390015 89.65020752 174.15390015 C86.74321045 174.17484741 83.83621338 174.19579468 80.84112549 174.21737671 C71.23394044 174.28367047 61.62674525 174.32784513 52.01939201 174.36114883 C46.19470999 174.382019 40.37026242 174.41032677 34.54571533 174.45565796 C28.92416201 174.49913524 23.30283413 174.52304155 17.68112564 174.53340912 C15.53691179 174.54079704 13.3927102 174.55522392 11.24859238 174.57682037 C8.24400974 174.60587882 5.2403574 174.60985505 2.23565674 174.60800171 C1.35020676 174.62238281 0.46475677 174.63676392 -0.44752502 174.65158081 C-5.89821615 174.61522622 -9.0516596 173.82789526 -13.34979248 170.15390015 C-15.74077784 166.56742211 -15.60711887 164.97733234 -15.62394714 160.71459961 C-15.62918382 160.05811223 -15.6344205 159.40162486 -15.63981587 158.72524393 C-15.65484073 156.52122558 -15.65552155 154.31743888 -15.65618896 152.1133728 C-15.66380878 150.53485216 -15.67223597 148.95633524 -15.68141174 147.37782288 C-15.70338094 143.08647222 -15.71215886 138.79519283 -15.71723819 134.50379229 C-15.72087884 131.82340554 -15.72711736 129.14303754 -15.73423958 126.46265793 C-15.75874228 117.11363655 -15.77178779 107.76467074 -15.77532959 98.4156189 C-15.77896574 89.69783524 -15.80886458 80.98040346 -15.85073417 72.26272738 C-15.88541083 64.78068508 -15.90087757 57.29875954 -15.90157562 49.8166374 C-15.90236933 45.34674392 -15.91115045 40.87720876 -15.93957329 36.40739822 C-15.96570929 32.20312491 -15.96798456 27.99950813 -15.95191765 23.79519081 C-15.95009958 22.25244404 -15.95682629 20.7096599 -15.97273636 19.16699409 C-15.99314497 17.05960593 -15.98268057 14.95452625 -15.96452332 12.84716797 C-15.96653464 11.66840403 -15.96854597 10.48964008 -15.97061825 9.27515602 C-15.16934356 5.24667742 -13.42908232 3.76971463 -10.34979248 1.15390015 C-8.1782007 -1.01769163 -3.01814551 0.001593 0 0 Z M1.65020752 18.15390015 C1.65020752 62.04390015 1.65020752 105.93390015 1.65020752 151.15390015 C74.91020752 151.15390015 148.17020752 151.15390015 223.65020752 151.15390015 C223.65020752 107.26390015 223.65020752 63.37390015 223.65020752 18.15390015 C150.39020752 18.15390015 77.13020752 18.15390015 1.65020752 18.15390015 Z " fill="#090600" transform="translate(15.34979248046875,-0.153900146484375)"/>
<path d="M0 0 C8.76609982 6.81382431 14.30999564 14.96725557 18.1875 25.3125 C18.43371094 25.96605469 18.67992187 26.61960938 18.93359375 27.29296875 C22.97829084 40.37547177 19.57449997 53.54963458 13.6484375 65.38671875 C6.17294994 78.08796184 -4.45532984 84.86406005 -18.2265625 89.44921875 C-31.66972113 92.68553472 -44.8503166 89.85646834 -56.59375 82.8359375 C-68.50684737 74.65616994 -75.99669358 63.5757257 -79.5 49.5625 C-80.97390532 34.23388464 -78.18644602 21.41933391 -69.03125 8.87109375 C-51.79863617 -11.9987316 -21.93246074 -14.75130034 0 0 Z " fill="#F1B606" transform="translate(157.8125,43.6875)"/>
<path d="M0 0 C0.99371337 -0.00438225 1.98742674 -0.00876451 3.01125264 -0.01327956 C6.36844516 -0.02672188 9.72561139 -0.03285856 13.08282471 -0.03897095 C15.47877116 -0.04686763 17.87471642 -0.05513631 20.2706604 -0.06375122 C27.48129835 -0.08775287 34.69193813 -0.10290707 41.90260208 -0.11581129 C43.9383927 -0.11952152 45.97418264 -0.12349489 48.00997257 -0.12756395 C60.644717 -0.15280069 73.27946246 -0.17485969 85.91422653 -0.1872921 C88.84249628 -0.19022194 91.77076599 -0.19318358 94.69903564 -0.19619751 C95.4268686 -0.19694356 96.15470155 -0.19768961 96.90459004 -0.19845827 C108.69616664 -0.21111298 120.48759249 -0.24433568 132.2790986 -0.28599934 C144.3781982 -0.32840021 156.4772206 -0.35198506 168.57639432 -0.35721266 C175.37247149 -0.36062911 182.16831318 -0.37241111 188.96431732 -0.4053154 C195.35662549 -0.43621376 201.74863531 -0.44174308 208.14101028 -0.42993164 C210.49003503 -0.42971008 212.83907832 -0.43808321 215.18803787 -0.45558548 C218.39001922 -0.47814893 221.59049331 -0.47004081 224.79248047 -0.45410156 C225.72662553 -0.46798365 226.66077058 -0.48186574 227.62322307 -0.49616849 C232.20756439 -0.43976664 234.02855894 -0.35005818 237.70381546 2.62940025 C238.34612484 3.46248522 238.98843422 4.29557018 239.65020752 5.15390015 C239.98020752 5.48390015 240.31020752 5.81390015 240.65020752 6.15390015 C240.75581235 8.21804657 240.78989238 10.2858591 240.79737854 12.35269165 C240.80105523 13.00747018 240.80473192 13.6622487 240.80852002 14.336869 C240.81959756 16.547046 240.82340756 18.75717605 240.82720947 20.96737671 C240.83347112 22.54559988 240.84011765 24.12382157 240.84712219 25.70204163 C240.86456133 30.00176263 240.87509214 34.30147249 240.88332772 38.60122013 C240.88847233 41.2859447 240.89454834 43.97066577 240.90083885 46.65538788 C240.91990013 55.05046723 240.93412855 63.44553774 240.94245082 71.84063458 C240.95222389 81.53998449 240.97854122 91.23910622 241.01895171 100.93837571 C241.04909127 108.42885988 241.06391769 115.91927858 241.06723183 123.40982223 C241.06958507 127.88640813 241.07858055 132.36275054 241.10369301 136.83927155 C241.12694069 141.0516409 241.13122043 145.26360589 241.12093163 149.47602272 C241.12043532 151.02199204 241.12678364 152.56798103 241.14048767 154.11388969 C241.15815834 156.22547051 241.15112622 158.33559265 241.13795471 160.44717407 C241.14034307 161.62853565 241.14273142 162.80989723 241.14519215 164.02705765 C240.54071063 167.84559742 239.37236112 169.44853214 236.65020752 172.15390015 C233.87212593 173.96539273 231.77457417 174.402927 228.48669434 174.39440918 C227.66502274 174.39715851 226.84335114 174.39990784 225.9967804 174.40274048 C225.10413986 174.39554993 224.21149933 174.38835937 223.29180908 174.38095093 C222.34512863 174.38124298 221.39844818 174.38153503 220.42308044 174.38183594 C217.29557107 174.38044317 214.16830025 174.36488431 211.04083252 174.34921265 C208.87178681 174.34548233 206.70273941 174.34263545 204.53369141 174.34063721 C198.82575831 174.33300222 193.11792705 174.3133548 187.41003418 174.29122925 C181.58515806 174.27076798 175.76026547 174.26163488 169.93536377 174.2515564 C158.50692642 174.23010884 147.07859137 174.1949277 135.65020752 174.15390015 C135.65020752 181.41390015 135.65020752 188.67390015 135.65020752 196.15390015 C137.83645752 196.05077515 140.02270752 195.94765015 142.27520752 195.84140015 C150.27894585 195.83330739 150.27894585 195.83330739 153.46270752 198.40390015 C156.5884611 202.33341894 156.78994248 205.34268718 156.77520752 210.27890015 C156.77778564 211.14772827 156.78036377 212.0165564 156.78302002 212.91171265 C156.65020752 215.15390015 156.65020752 215.15390015 155.65020752 217.15390015 C127.27020752 217.15390015 98.89020752 217.15390015 69.65020752 217.15390015 C67.47899819 212.81148149 68.23636808 206.88450145 69.33770752 202.27890015 C71.09822336 199.42854116 72.83880509 197.99506315 75.65020752 196.15390015 C80.37753373 195.63384226 84.87741354 195.97547794 89.65020752 196.15390015 C89.65020752 188.89390015 89.65020752 181.63390015 89.65020752 174.15390015 C86.74321045 174.17484741 83.83621338 174.19579468 80.84112549 174.21737671 C71.23394044 174.28367047 61.62674525 174.32784513 52.01939201 174.36114883 C46.19470999 174.382019 40.37026242 174.41032677 34.54571533 174.45565796 C28.92416201 174.49913524 23.30283413 174.52304155 17.68112564 174.53340912 C15.53691179 174.54079704 13.3927102 174.55522392 11.24859238 174.57682037 C8.24400974 174.60587882 5.2403574 174.60985505 2.23565674 174.60800171 C1.35020676 174.62238281 0.46475677 174.63676392 -0.44752502 174.65158081 C-5.89821615 174.61522622 -9.0516596 173.82789526 -13.34979248 170.15390015 C-15.74077784 166.56742211 -15.60711887 164.97733234 -15.62394714 160.71459961 C-15.62918382 160.05811223 -15.6344205 159.40162486 -15.63981587 158.72524393 C-15.65484073 156.52122558 -15.65552155 154.31743888 -15.65618896 152.1133728 C-15.66380878 150.53485216 -15.67223597 148.95633524 -15.68141174 147.37782288 C-15.70338094 143.08647222 -15.71215886 138.79519283 -15.71723819 134.50379229 C-15.72087884 131.82340554 -15.72711736 129.14303754 -15.73423958 126.46265793 C-15.75874228 117.11363655 -15.77178779 107.76467074 -15.77532959 98.4156189 C-15.77896574 89.69783524 -15.80886458 80.98040346 -15.85073417 72.26272738 C-15.88541083 64.78068508 -15.90087757 57.29875954 -15.90157562 49.8166374 C-15.90236933 45.34674392 -15.91115045 40.87720876 -15.93957329 36.40739822 C-15.96570929 32.20312491 -15.96798456 27.99950813 -15.95191765 23.79519081 C-15.95009958 22.25244404 -15.95682629 20.7096599 -15.97273636 19.16699409 C-15.99314497 17.05960593 -15.98268057 14.95452625 -15.96452332 12.84716797 C-15.96653464 11.66840403 -15.96854597 10.48964008 -15.97061825 9.27515602 C-15.16934356 5.24667742 -13.42908232 3.76971463 -10.34979248 1.15390015 C-8.1782007 -1.01769163 -3.01814551 0.001593 0 0 Z M-8.91156101 6.78948975 C-10.78417837 9.86801782 -10.8503336 11.89231676 -10.85099792 15.49240112 C-10.86083206 16.79631302 -10.8706662 18.10022491 -10.88079834 19.44364929 C-10.87142651 20.8867824 -10.86164721 22.3299129 -10.85150146 23.77304077 C-10.85528485 25.29421997 -10.86078505 26.81539573 -10.86787415 28.33656311 C-10.88184371 32.46677471 -10.87064866 36.59657043 -10.85416293 40.72675896 C-10.84031935 45.0477316 -10.84677172 49.36867993 -10.85029602 53.68966675 C-10.85299869 60.94620471 -10.83951767 68.20257731 -10.81634521 75.45907593 C-10.78973507 83.85020871 -10.78798814 92.241065 -10.79973358 100.63222551 C-10.81051051 108.70216442 -10.80432497 116.77200325 -10.7901783 124.8419342 C-10.78441775 128.27727116 -10.78450171 131.71253489 -10.7892437 135.14787292 C-10.79401391 139.19284189 -10.7839102 143.23750788 -10.76228905 147.2824192 C-10.75672157 148.76750987 -10.75625555 150.25262966 -10.76124191 151.7377224 C-10.76719135 153.76362141 -10.75286107 155.78954986 -10.73747253 157.81539917 C-10.73504264 158.94954002 -10.73261274 160.08368088 -10.73010921 161.25218964 C-10.28101776 164.67863203 -10.08157083 165.99177193 -7.34979248 168.15390015 C-4.20356619 168.75539182 -1.09245399 168.69271601 2.10211182 168.66183472 C3.08261096 168.66807468 4.0631101 168.67431464 5.07332134 168.68074369 C8.37393096 168.69675707 11.67381058 168.6840366 14.97442627 168.67147827 C17.33450758 168.67689567 19.6945855 168.68401616 22.05465698 168.69271851 C28.47604744 168.71100013 34.8971817 168.70386425 41.31857681 168.69120216 C45.32629116 168.68410261 49.33398785 168.68542775 53.34170532 168.68916321 C54.00651938 168.68977614 54.67133344 168.69038907 55.35629338 168.69102058 C56.7067516 168.69229945 58.05720981 168.6935963 59.40766799 168.69491094 C72.07791036 168.70632354 84.74803706 168.69319245 97.41826046 168.67170948 C108.29543877 168.65383783 119.17244635 168.65694175 130.04962158 168.67538452 C142.67379094 168.69677931 155.29785885 168.70522484 167.9220438 168.69293547 C169.26759909 168.69166124 170.6131544 168.69040376 171.95870972 168.68916321 C172.95182876 168.68823755 172.95182876 168.68823755 173.96501082 168.6872932 C178.63594184 168.6838361 183.30677331 168.68987103 187.97769165 168.69908142 C194.26172004 168.71060631 200.54542488 168.70267551 206.82941818 168.67950439 C209.1405623 168.67419933 211.45173349 168.67576155 213.76286697 168.68455505 C216.90838442 168.69542299 220.05285331 168.68185257 223.19830322 168.66183472 C224.12134593 168.6707576 225.04438864 168.67968049 225.99540234 168.68887377 C230.71887486 168.71823897 230.71887486 168.71823897 234.71672153 166.51831055 C235.91395452 163.48585995 236.0308906 161.08119737 236.03788757 157.81539917 C236.04779221 156.51148727 236.05769684 155.20757538 236.06790161 153.864151 C236.06366358 152.42101957 236.05910573 150.97788904 236.05426025 149.53475952 C236.05996303 148.0135803 236.06692693 146.49240536 236.07505798 144.97123718 C236.09301368 140.84111029 236.09181668 136.71119556 236.0861156 132.58104134 C236.08302762 129.13405177 236.08911175 125.68710319 236.09515435 122.24011946 C236.1092055 114.10961982 236.10763303 105.97922524 236.09625244 97.84872437 C236.08476664 89.45755399 236.0988532 81.06670306 236.12564892 72.67557478 C236.14778925 65.47292054 236.15444719 58.2703667 236.1485725 51.06768084 C236.14519819 46.76501854 236.14764948 42.46256109 236.16482353 38.15992737 C236.1802645 34.11491422 236.17636927 30.0703753 236.15751839 26.02538109 C236.15382474 24.54028096 236.15696358 23.05514592 236.16740417 21.5700779 C236.18056026 19.54422134 236.16669191 17.51824278 236.15141296 15.49240112 C236.15120368 14.35826027 236.1509944 13.22411942 236.15077877 12.05561066 C235.8268404 9.11865192 235.8268404 9.11865192 234.21197605 6.78948975 C230.30447883 4.2947047 226.70792655 4.60145986 222.16070557 4.64596558 C221.18822467 4.63972561 220.21574377 4.63348565 219.21379375 4.6270566 C215.94625995 4.61106699 212.67946596 4.62375449 209.41192627 4.63632202 C207.07302412 4.63090357 204.73412539 4.62378248 202.39523315 4.61508179 C196.03581536 4.5968127 189.67665649 4.60393091 183.31723404 4.61659813 C177.34332179 4.62568318 171.36943354 4.61875724 165.395522 4.61288935 C152.84256015 4.6014804 140.28971511 4.61460214 127.73677242 4.63609082 C116.96339281 4.65396213 106.19018558 4.65085811 95.41680908 4.63241577 C82.909085 4.61101456 70.40146332 4.60257906 57.89372349 4.61486483 C51.27161398 4.62119259 44.64960063 4.62190932 38.02749634 4.60871887 C31.8025464 4.5971862 25.57792285 4.60513917 19.35300827 4.6282959 C17.06485919 4.63359677 14.77668276 4.63204582 12.48854446 4.62324524 C9.37189202 4.61236089 6.25629419 4.62596789 3.13970947 4.64596558 C2.22804362 4.63704269 1.31637777 4.6281198 0.37708569 4.61892653 C-3.41376806 4.66630843 -5.67028906 4.72006363 -8.91156101 6.78948975 Z " fill="#F7BB06" transform="translate(15.34979248046875,-0.153900146484375)"/>
<path d="M0 0 C1.04307312 -0.00563965 2.08614624 -0.0112793 3.16082764 -0.01708984 C4.86906708 -0.01101715 4.86906708 -0.01101715 6.61181641 -0.00482178 C7.81541809 -0.00832642 9.01901978 -0.01183105 10.25909424 -0.01544189 C13.5566298 -0.02273559 16.85391436 -0.02102667 20.15143585 -0.01468372 C23.60356482 -0.00961754 27.05568311 -0.0143169 30.5078125 -0.01745605 C36.30486983 -0.0210939 42.10187619 -0.01630138 47.89892578 -0.0067749 C54.5995384 0.00410932 61.3000293 0.00058362 68.00063896 -0.01042771 C73.75530984 -0.01950578 79.5099441 -0.02078333 85.26461983 -0.01555037 C88.70090861 -0.01243353 92.13714019 -0.01201349 95.57342529 -0.01862335 C99.40397874 -0.02547702 103.23439601 -0.01597553 107.06494141 -0.00482178 C108.2037677 -0.00887024 109.34259399 -0.0129187 110.51593018 -0.01708984 C111.5590033 -0.0114502 112.60207642 -0.00581055 113.67675781 0 C115.0350621 0.00113108 115.0350621 0.00113108 116.42080688 0.002285 C119.02479515 0.27337422 120.63261566 0.86281842 122.83837891 2.25396729 C124.01098633 4.1741333 124.01098633 4.1741333 124.94384766 6.50787354 C125.45915039 7.79081299 125.45915039 7.79081299 125.98486328 9.09967041 C126.50016602 10.44448486 126.50016602 10.44448486 127.02587891 11.81646729 C127.38101563 12.68593994 127.73615234 13.5554126 128.10205078 14.45123291 C130.17525566 19.72669352 132.44049192 25.49330573 131.83837891 31.25396729 C130.68832397 33.34674835 130.68832397 33.34674835 128.83837891 35.25396729 C126.22871399 35.75733185 126.22871399 35.75733185 123.03100586 35.76190186 C121.81957916 35.77318115 120.60815247 35.78446045 119.36001587 35.79608154 C118.01556158 35.78830413 116.67110965 35.78011144 115.32666016 35.77154541 C113.91237669 35.77696486 112.49809888 35.78408653 111.08383179 35.79278564 C107.24081495 35.81104341 103.39822695 35.80394165 99.55520248 35.7912693 C95.53670837 35.78115419 91.51825139 35.79053082 87.49975586 35.79681396 C80.75090938 35.80409474 74.00223789 35.79449148 67.25341797 35.77545166 C59.44673673 35.75368197 51.64047333 35.76073305 43.83380222 35.78275728 C37.1356247 35.80089912 30.43757308 35.80347561 23.73937893 35.79300261 C19.73687832 35.78676093 15.73457422 35.78595038 11.73208618 35.79914856 C7.96940135 35.81068892 4.2072561 35.80271534 0.44462967 35.77957153 C-0.9376778 35.77427461 -2.32003054 35.77581507 -3.7023201 35.78462219 C-5.58627978 35.79552054 -7.4703385 35.77944248 -9.35424805 35.76190186 C-10.93711357 35.7596397 -10.93711357 35.7596397 -12.55195618 35.75733185 C-15.16162109 35.25396729 -15.16162109 35.25396729 -17.01156616 33.34674835 C-19.05519021 29.62791927 -18.05944324 26.25730735 -17.16162109 22.25396729 C-16.08011965 18.6898207 -14.75689437 15.26308462 -13.34912109 11.81646729 C-13.00558594 10.91992432 -12.66205078 10.02338135 -12.30810547 9.09967041 C-11.96457031 8.24437744 -11.62103516 7.38908447 -11.26708984 6.50787354 C-10.95924561 5.73773926 -10.65140137 4.96760498 -10.33422852 4.1741333 C-7.92115913 0.22268821 -4.3351628 0.00360994 0 0 Z " fill="#000000" transform="translate(71.16162109375,220.74603271484375)"/>
<path d="M0 0 C12.24505216 7.14294709 20.16917464 16.86814045 24.19140625 30.515625 C26.94922523 43.53059529 23.94086258 55.49899504 17.0078125 66.64453125 C12.73085387 72.37747579 12.73085387 72.37747579 8.859375 73.66796875 C8.4675 72.65734375 8.075625 71.64671875 7.671875 70.60546875 C3.89891579 62.02112118 -0.84952723 58.06305553 -9.140625 53.66796875 C-7.94569859 51.12740448 -6.86032291 49.33820159 -5.015625 47.16796875 C-2.26248172 42.02876796 -2.38905697 37.38141956 -3.140625 31.66796875 C-4.84355526 26.30086832 -8.25295056 23.31545907 -13.140625 20.66796875 C-17.61454499 18.87840076 -22.83136783 18.73506232 -27.296875 20.5390625 C-31.98713711 23.20796165 -35.57532745 26.35368695 -37.140625 31.66796875 C-37.94318243 36.7789924 -38.32145017 41.50084741 -35.7890625 46.1484375 C-34.18983794 48.29081048 -34.18983794 48.29081048 -32.453125 50.14453125 C-31.140625 51.66796875 -31.140625 51.66796875 -31.140625 53.66796875 C-32.63057344 54.55534247 -34.15992605 55.37682055 -35.703125 56.16796875 C-41.87666552 59.72827763 -46.75931904 65.01099436 -48.82421875 71.97265625 C-48.92863281 72.53210938 -49.03304687 73.0915625 -49.140625 73.66796875 C-55.36099678 71.15799417 -58.6704074 64.75806682 -61.4453125 58.92578125 C-66.07728914 47.53179493 -66.91436539 36.26004873 -62.46484375 24.55078125 C-56.1715113 10.8502522 -47.77915066 3.68912526 -34.140625 -2.33203125 C-23.92477373 -5.73731501 -9.60826373 -4.44319968 0 0 Z " fill="#030200" transform="translate(148.140625,43.33203125)"/>
<path d="M0 0 C75.9 0 151.8 0 230 0 C230.0309375 35.1140625 230.0309375 35.1140625 230.0625 70.9375 C230.071604 78.34179443 230.08070801 85.74608887 230.09008789 93.37475586 C230.09460449 102.38391113 230.09460449 102.38391113 230.09544373 106.5952301 C230.09637916 109.55019372 230.10014161 112.50513956 230.10557556 115.46009827 C230.11240296 119.22228578 230.11449707 122.98444719 230.11307228 126.74664032 C230.11337048 128.13176434 230.11537205 129.51688922 230.11921513 130.90200794 C230.12414457 132.76429091 230.12240357 134.62658808 230.12025452 136.48887634 C230.12163721 138.0582289 230.12163721 138.0582289 230.12304783 139.65928555 C230 142 230 142 229 143 C226.06924068 143.1001925 223.1619702 143.13438434 220.23071289 143.12698364 C219.29951409 143.12854363 218.3683153 143.13010362 217.40889835 143.13171089 C214.2634686 143.13572516 211.11808643 143.1325296 207.97265625 143.12939453 C205.72785412 143.13074838 203.48305221 143.13252822 201.23825073 143.13470459 C195.12272985 143.13928084 189.00722575 143.13748858 182.89170456 143.1343255 C176.50731103 143.13180289 170.12291898 143.13413916 163.73852539 143.13571167 C152.32689609 143.13765053 140.91527612 143.13453271 129.5036484 143.12945233 C119.14663419 143.12498429 108.78963119 143.12576022 98.43261719 143.13037109 C86.41938649 143.13571676 74.40616426 143.13771774 62.39293194 143.13475883 C56.02856362 143.1331956 49.66420303 143.13300354 43.29983521 143.13629532 C37.31799675 143.13917284 31.33617956 143.13720054 25.35434341 143.13140106 C23.15200969 143.13007282 20.94967419 143.13046865 18.74734116 143.13266373 C15.75463187 143.13537274 12.76199191 143.13199717 9.76928711 143.12698364 C8.44397523 143.13032973 8.44397523 143.13032973 7.09188938 143.13374341 C1.11414982 143.11414982 1.11414982 143.11414982 0 142 C-0.09646028 140.16505514 -0.12187344 138.32635413 -0.12025452 136.48887634 C-0.12163201 135.29519156 -0.12300951 134.10150679 -0.12442875 132.87164974 C-0.12088149 131.53153905 -0.11724359 130.19142859 -0.11352539 128.85131836 C-0.11321928 127.42944879 -0.11335217 126.00757907 -0.11389065 124.58570957 C-0.11411715 120.76522881 -0.10830578 116.94477913 -0.10128021 113.12430573 C-0.09560086 109.54417316 -0.09531794 105.96404829 -0.09460449 102.38391113 C-0.08934943 91.90176994 -0.07538838 81.41963458 -0.0625 70.9375 C-0.041875 47.528125 -0.02125 24.11875 0 0 Z M4 5 C4 48.89 4 92.78 4 138 C77.26 138 150.52 138 226 138 C226 94.11 226 50.22 226 5 C152.74 5 79.48 5 4 5 Z " fill="#F2B706" transform="translate(13,13)"/>
<path d="M0 0 C1.04307312 -0.00563965 2.08614624 -0.0112793 3.16082764 -0.01708984 C4.86906708 -0.01101715 4.86906708 -0.01101715 6.61181641 -0.00482178 C7.81541809 -0.00832642 9.01901978 -0.01183105 10.25909424 -0.01544189 C13.5566298 -0.02273559 16.85391436 -0.02102667 20.15143585 -0.01468372 C23.60356482 -0.00961754 27.05568311 -0.0143169 30.5078125 -0.01745605 C36.30486983 -0.0210939 42.10187619 -0.01630138 47.89892578 -0.0067749 C54.5995384 0.00410932 61.3000293 0.00058362 68.00063896 -0.01042771 C73.75530984 -0.01950578 79.5099441 -0.02078333 85.26461983 -0.01555037 C88.70090861 -0.01243353 92.13714019 -0.01201349 95.57342529 -0.01862335 C99.40397874 -0.02547702 103.23439601 -0.01597553 107.06494141 -0.00482178 C108.2037677 -0.00887024 109.34259399 -0.0129187 110.51593018 -0.01708984 C111.5590033 -0.0114502 112.60207642 -0.00581055 113.67675781 0 C115.0350621 0.00113108 115.0350621 0.00113108 116.42080688 0.002285 C119.02479515 0.27337422 120.63261566 0.86281842 122.83837891 2.25396729 C124.01098633 4.1741333 124.01098633 4.1741333 124.94384766 6.50787354 C125.45915039 7.79081299 125.45915039 7.79081299 125.98486328 9.09967041 C126.50016602 10.44448486 126.50016602 10.44448486 127.02587891 11.81646729 C127.38101563 12.68593994 127.73615234 13.5554126 128.10205078 14.45123291 C130.17525566 19.72669352 132.44049192 25.49330573 131.83837891 31.25396729 C130.68832397 33.34674835 130.68832397 33.34674835 128.83837891 35.25396729 C126.22871399 35.75733185 126.22871399 35.75733185 123.03100586 35.76190186 C121.81957916 35.77318115 120.60815247 35.78446045 119.36001587 35.79608154 C118.01556158 35.78830413 116.67110965 35.78011144 115.32666016 35.77154541 C113.91237669 35.77696486 112.49809888 35.78408653 111.08383179 35.79278564 C107.24081495 35.81104341 103.39822695 35.80394165 99.55520248 35.7912693 C95.53670837 35.78115419 91.51825139 35.79053082 87.49975586 35.79681396 C80.75090938 35.80409474 74.00223789 35.79449148 67.25341797 35.77545166 C59.44673673 35.75368197 51.64047333 35.76073305 43.83380222 35.78275728 C37.1356247 35.80089912 30.43757308 35.80347561 23.73937893 35.79300261 C19.73687832 35.78676093 15.73457422 35.78595038 11.73208618 35.79914856 C7.96940135 35.81068892 4.2072561 35.80271534 0.44462967 35.77957153 C-0.9376778 35.77427461 -2.32003054 35.77581507 -3.7023201 35.78462219 C-5.58627978 35.79552054 -7.4703385 35.77944248 -9.35424805 35.76190186 C-10.93711357 35.7596397 -10.93711357 35.7596397 -12.55195618 35.75733185 C-15.16162109 35.25396729 -15.16162109 35.25396729 -17.01156616 33.34674835 C-19.05519021 29.62791927 -18.05944324 26.25730735 -17.16162109 22.25396729 C-16.08011965 18.6898207 -14.75689437 15.26308462 -13.34912109 11.81646729 C-13.00558594 10.91992432 -12.66205078 10.02338135 -12.30810547 9.09967041 C-11.96457031 8.24437744 -11.62103516 7.38908447 -11.26708984 6.50787354 C-10.95924561 5.73773926 -10.65140137 4.96760498 -10.33422852 4.1741333 C-7.92115913 0.22268821 -4.3351628 0.00360994 0 0 Z M-5.16162109 6.25396729 C-6.34527501 9.12225935 -7.5053808 11.99952716 -8.66162109 14.87896729 C-8.99548828 15.68720947 -9.32935547 16.49545166 -9.67333984 17.32818604 C-9.98916016 18.12095947 -10.30498047 18.91373291 -10.63037109 19.73052979 C-10.92363281 20.45321045 -11.21689453 21.17589111 -11.51904297 21.92047119 C-12.42711047 24.81468883 -12.42711047 24.81468883 -12.16162109 30.25396729 C33.37837891 30.25396729 78.91837891 30.25396729 125.83837891 30.25396729 C125.93031267 24.89299232 125.93031267 24.89299232 124.59619141 20.23834229 C124.33451172 19.54482666 124.07283203 18.85131104 123.80322266 18.13677979 C123.52607422 17.43295166 123.24892578 16.72912354 122.96337891 16.00396729 C122.69396484 15.28467041 122.42455078 14.56537354 122.14697266 13.82427979 C120.56403988 9.68833197 120.56403988 9.68833197 117.83837891 6.25396729 C115.58058621 5.95554475 115.58058621 5.95554475 112.92831421 6.01345825 C111.89062393 6.01070892 110.85293365 6.00795959 109.78379822 6.00512695 C108.64084793 6.0123175 107.49789764 6.01950806 106.3203125 6.0269165 C105.12033127 6.02662445 103.92035004 6.0263324 102.68400574 6.02603149 C99.38867704 6.02718817 96.09359728 6.03723582 92.79831266 6.05117941 C89.35632271 6.06366072 85.91432964 6.06485521 82.47232056 6.06723022 C75.95227547 6.07345266 69.43229724 6.08987376 62.91228163 6.1099292 C55.49037862 6.1322645 48.06847246 6.14327566 40.64654422 6.15332007 C25.37711702 6.17423936 10.10775658 6.20943011 -5.16162109 6.25396729 Z " fill="#FDBF06" transform="translate(71.16162109375,220.74603271484375)"/>
<path d="M0 0 C5.23926461 3.49284307 8.92426423 7.96900651 11 14 C10.9140625 16.61328125 10.9140625 16.61328125 10 19 C1.03574562 25.76250769 -10.1751367 26.83368382 -21 26 C-27.85044858 24.76672656 -33.34838908 21.99401554 -39 18 C-38.85195517 11.04189304 -35.82489716 6.87962189 -31 2 C-22.36623337 -5.36862063 -9.76830526 -5.05858665 0 0 Z " fill="#030300" transform="translate(142,103)"/>
<path d="M0 0 C6.18497735 3.52506894 9.7881792 7.04813136 12.0625 13.87109375 C12.1875 17.49609375 12.1875 17.49609375 12.0625 20.87109375 C9.92068355 23.0129102 5.03672074 22.03532919 2.06640625 22.0390625 C0.71058693 22.0440551 0.71058693 22.0440551 -0.67262268 22.04914856 C-2.58846527 22.05422171 -4.50431672 22.05655677 -6.42016602 22.05639648 C-9.35903418 22.05858188 -12.29752652 22.0767304 -15.23632812 22.09570312 C-17.09374871 22.09863712 -18.95117109 22.10062188 -20.80859375 22.1015625 C-21.69195908 22.10874802 -22.5753244 22.11593353 -23.48545837 22.12333679 C-29.70867861 22.09991514 -29.70867861 22.09991514 -31.9375 19.87109375 C-31.72693082 14.50157968 -30.31203202 10.06049855 -26.9375 5.87109375 C-19.21619918 -1.05628299 -10.14114905 -3.89732989 0 0 Z " fill="#F8BC06" transform="translate(243.9375,221.12890625)"/>
<path d="M0 0 C1.01755371 -0.00788544 1.01755371 -0.00788544 2.05566406 -0.01593018 C4.29776035 -0.02913276 6.53914651 -0.02039179 8.78125 -0.01025391 C10.3391941 -0.01227458 11.89713727 -0.01518597 13.45507812 -0.01895142 C16.72014369 -0.0233751 19.98496305 -0.0169425 23.25 -0.00292969 C27.43676349 0.01416247 31.62295007 0.00432148 35.80969238 -0.01364708 C39.02673699 -0.02448387 42.24364465 -0.02103911 45.46069336 -0.0132637 C47.0044766 -0.01126139 48.54827225 -0.01372207 50.09204102 -0.02070236 C52.24919604 -0.02831541 54.40541478 -0.01671613 56.5625 0 C57.79033203 0.00238678 59.01816406 0.00477356 60.28320312 0.00723267 C63.28125 0.38818359 63.28125 0.38818359 65.20117188 1.41244507 C66.28125 3.38818359 66.28125 3.38818359 66.28125 11.38818359 C41.20125 11.38818359 16.12125 11.38818359 -9.71875 11.38818359 C-9.71875 3.38818359 -9.71875 3.38818359 -8.63867188 1.41244507 C-5.73614308 -0.13602858 -3.27776058 0.00637163 0 0 Z " fill="#110C00" transform="translate(99.71875,200.61181640625)"/>
<path d="M0 0 C11.22 0 22.44 0 34 0 C34 7.26 34 14.52 34 22 C22.78 22 11.56 22 0 22 C0 14.74 0 7.48 0 0 Z " fill="#000000" transform="translate(111,174)"/>
<path d="M0 0 C3.24394395 2.09054166 4.93384184 3.41646409 6.8125 6.8125 C7.63229599 11.81492862 7.36073991 15.65276173 5.1875 20.25 C1.56912327 24.15403805 -1.41620837 25.59108855 -6.6875 26.25 C-11.81542701 25.60900912 -14.68426574 23.5161655 -18.0625 19.6875 C-19.75414673 15.36440281 -19.97769485 11.38538687 -19.1875 6.8125 C-17.53866481 3.61297457 -15.21313708 1.56463386 -12.3125 -0.5625 C-7.90416955 -1.85906778 -4.27897212 -1.59412687 0 0 Z " fill="#050400" transform="translate(134.1875,68.1875)"/>
<path d="M0 0 C3.54443021 1.9034903 5.81221292 3.72208028 8.375 6.8125 C8.705 8.1325 9.035 9.4525 9.375 10.8125 C-0.855 10.8125 -11.085 10.8125 -21.625 10.8125 C-20.358685 4.48092501 -17.8439022 2.99304665 -12.6875 -0.5 C-8.19229023 -1.99840326 -4.43331555 -1.45229303 0 0 Z " fill="#050400" transform="translate(240.625,226.1875)"/>
<path d="M0 0 C1.32 0 2.64 0 4 0 C3.67 1.65 3.34 3.3 3 5 C2.01 4.67 1.02 4.34 0 4 C0 2.68 0 1.36 0 0 Z " fill="#E9B006" transform="translate(126,160)"/>
</svg>
